<?xml version="1.0" standalone="no"?><!DOCTYPE svg PUBLIC "-//W3C//DTD SVG 1.1//EN" "http://www.w3.org/Graphics/SVG/1.1/DTD/svg11.dtd"><svg t="1585289256202" class="icon" viewBox="0 0 1024 1024" version="1.1" xmlns="http://www.w3.org/2000/svg" p-id="3472" xmlns:xlink="http://www.w3.org/1999/xlink" width="32" height="32"><defs><style type="text/css"></style></defs><path d="M1006.4 349.5L537.1 8.2a42.62 42.62 0 0 0-50.2 0L17.6 349.5c-19 13.8-23.3 40.5-9.4 59.6 8.3 11.5 21.3 16.8 34.5 16.8V902c0 68.4 45.6 122 103.7 122h731.1c58.2 0 103.7-53.6 103.7-122V426.7c13.2 0 26.2-6.1 34.5-17.6 14-19 9.8-45.8-9.3-59.6zM426.7 938.7v-217c0-47.1 38.3-85.3 85.3-85.3 47.1 0 85.3 38.3 85.3 85.3v217H426.7zM896 902c0 22.4-12.1 36.7-18.4 36.7H682.7v-217c0-94.3-76.4-170.7-170.7-170.7-94.3 0-170.7 76.4-170.7 170.7v217H146.4c-6.3 0-18.4-14.3-18.4-36.7V384c0-2.9-1.1-5.4-1.6-8.1L512 95.4l385.6 280.5c-0.5 2.7-1.6 5.2-1.6 8.1v518z" p-id="3473"></path></svg>