<?xml version="1.0" standalone="no"?><!DOCTYPE svg PUBLIC "-//W3C//DTD SVG 1.1//EN" "http://www.w3.org/Graphics/SVG/1.1/DTD/svg11.dtd"><svg t="1585291125391" class="icon" viewBox="0 0 1024 1024" version="1.1" xmlns="http://www.w3.org/2000/svg" p-id="6828" xmlns:xlink="http://www.w3.org/1999/xlink" width="32" height="32"><defs><style type="text/css"></style></defs><path d="M512 0C229.2 0 0 229.2 0 512s229.2 512 512 512 512-229.2 512-512S794.8 0 512 0z m0 945.2C273.1 945.2 78.8 750.9 78.8 512S273.1 78.8 512 78.8c238.9 0 433.2 194.3 433.2 433.2S750.9 945.2 512 945.2z" p-id="6829"></path><path d="M562.8 644.8l-10.1 6.8 43-247.5c2.4-13.8-2.7-27.8-13.5-36.9-10.7-9-25.4-11.5-38.7-6.9L426 402.6c-20.5 7.4-31.1 29.9-23.7 50.4 7.3 20.5 30 31.1 50.4 23.8l53.7-19.3-47.1 271.3c-2.7 15.5 4.1 31.2 17.3 39.7 6.5 4.3 14 6.4 21.5 6.4 7.6 0 15.2-2.2 21.9-6.6l86.5-57.8c18.1-12.1 23-36.5 10.9-54.7-12.1-18.1-36.6-23-54.6-11zM565 332.2h4.7c20.4 0 37-16.6 37-37v-4.7c0-20.5-16.6-37-37-37H565c-20.4 0-37 16.6-37 37v4.7c0 20.4 16.6 37 37 37z" p-id="6830"></path></svg>