<?xml version="1.0" standalone="no"?><!DOCTYPE svg PUBLIC "-//W3C//DTD SVG 1.1//EN" "http://www.w3.org/Graphics/SVG/1.1/DTD/svg11.dtd"><svg t="1585289979235" class="icon" viewBox="0 0 1024 1024" version="1.1" xmlns="http://www.w3.org/2000/svg" p-id="3759" xmlns:xlink="http://www.w3.org/1999/xlink" width="32" height="32"><defs><style type="text/css"></style></defs><path d="M981.3 640c-23.6 0-42.7 19.1-42.7 42.7v128c0 70.6-57.4 128-128 128H213.3c-70.6 0-128-57.4-128-128V213.3c0-70.6 57.4-128 128-128h128c23.6 0 42.7-19.1 42.7-42.7S364.9 0 341.3 0h-128C95.7 0 0 95.7 0 213.3v597.3C0 928.3 95.7 1024 213.3 1024h597.3c117.6 0 213.3-95.7 213.3-213.3v-128c0.1-23.6-19-42.7-42.6-42.7z" p-id="3760"></path><path d="M896 0H597.3c-23.6 0-42.7 19.1-42.7 42.7s19.1 42.7 42.7 42.7h274.8L439 524.7c-16.6 16.8-16.4 43.8 0.4 60.3 8.3 8.2 19.1 12.3 30 12.3 11 0 22-4.2 30.4-12.7l439-445.3v287.3c0 23.6 19.1 42.7 42.7 42.7s42.7-19.1 42.7-42.7V128C1024 57.4 966.6 0 896 0z" p-id="3761"></path></svg>