<?xml version="1.0" standalone="no"?><!DOCTYPE svg PUBLIC "-//W3C//DTD SVG 1.1//EN" "http://www.w3.org/Graphics/SVG/1.1/DTD/svg11.dtd"><svg t="1584691276944" class="icon" viewBox="0 0 1024 1024" version="1.1" xmlns="http://www.w3.org/2000/svg" p-id="11109" xmlns:xlink="http://www.w3.org/1999/xlink" width="32" height="32"><defs><style type="text/css"></style></defs><path d="M194.24 194.56C226.88 67.68 366.08-16.96 493.92 10.72c133.92 22.08 231.52 162.56 206.88 295.84-14.88 85.44-75.2 161.12-154.56 195.84-64.8 25.44-137.12 13.6-203.2 33.76C163.52 581.12 46.24 770.88 71.84 952c137.44-0.32 274.88 0.96 412.32-0.8 13.6 21.44 26.72 43.2 40.32 64.8-148.16 0.32-296.32-0.48-444.32 0.32-24-4.32-69.44 11.68-74.4-23.52-5.6-86.72-5.28-177.12 28.32-258.72 44.96-119.04 146.4-210.4 264.32-254.88-88-62.56-136.96-179.36-104.16-284.64m192.8-113.6c-71.2 20.64-124.8 86.56-133.92 159.68-16.16 105.28 72.48 209.28 178.08 213.76 110.08 10.72 213.92-89.6 205.28-200.32-0.8-120.8-135.84-213.6-249.44-173.12z" p-id="11110"></path><path d="M577.92 564.64c27.68-21.76 58.72-41.12 93.28-50.08 30.24 3.68 53.12 27.84 81.28 38.4 28-10.56 51.36-33.6 81.6-37.76 33.28 9.6 64.48 27.84 89.92 51.36 14.88 29.6-10.08 68.64 13.12 96 22.24 18.72 56.16 19.52 74.72 42.24 15.68 45.76 7.04 94.56-2.56 140.48-27.36 9.92-61.44 12-79.36 38.24-5.44 28.64 1.44 57.92-4 86.56-24.96 24.16-57.12 38.72-87.84 53.92h-17.6c-23.04-13.92-43.68-32.48-69.28-41.6-27.04 5.92-47.36 28.16-70.88 41.6h-14.24c-31.04-14.4-62.56-29.28-88.64-52-4.96-28.96 0.16-58.88-5.6-87.68-14.4-28-49.92-27.36-75.84-36.96-14.72-46.88-22.08-100-2.4-146.56 23.2-20.8 60.48-21.92 79.36-48.16 3.36-29.28-0.16-58.88 4.96-88m49.76 29.12c15.68 64.16-25.92 132-91.84 142.4-0.96 21.44-0.96 42.88 0 64.32 65.28 14.4 109.12 77.92 92 144.48 13.76 7.84 27.52 15.68 41.28 23.68 44.48-46.56 117.28-48.16 160.8 0.64 15.04-7.84 29.92-15.84 44.64-24.16-17.12-66.4 26.88-132 93.28-144.8 0-20.8 0-41.6-0.16-62.4-64.96-14.24-111.2-79.04-92.64-145.44-14.08-7.68-28.16-15.2-42.24-22.72-25.44 14.56-50.56 33.44-80.8 35.36-30.72-1.6-55.2-22.24-80.48-36.96-14.56 8.48-29.28 17.12-43.84 25.6z" p-id="11111"></path><path d="M722.4 672.16c59.52-20.64 131.04 32.16 127.2 95.52 6.24 79.36-100.8 133.44-160 79.36-65.6-43.68-43.52-157.12 32.8-174.88m2.88 54.88c-56.16 30.4 0.16 120 51.52 80.96 52.48-29.92-0.96-115.84-51.52-80.96z" p-id="11112"></path></svg>