<?xml version="1.0" standalone="no"?><!DOCTYPE svg PUBLIC "-//W3C//DTD SVG 1.1//EN" "http://www.w3.org/Graphics/SVG/1.1/DTD/svg11.dtd"><svg t="1584692015195" class="icon" viewBox="0 0 1024 1024" version="1.1" xmlns="http://www.w3.org/2000/svg" p-id="38007" xmlns:xlink="http://www.w3.org/1999/xlink" width="32" height="32"><defs><style type="text/css"></style></defs><path d="M512 569.6c-140.8 0-256-128-256-275.2S371.2 12.8 512 12.8s256 128 256 275.2-115.2 281.6-256 281.6z m0-492.8c-108.8 0-192 96-192 217.6S396.8 512 512 512s192-96 192-217.6S620.8 76.8 512 76.8z" p-id="38008"></path><path d="M896 1017.6c-19.2 0-32-12.8-32-32V768c0-121.6-96-217.6-217.6-217.6h-57.6c-19.2 0 0-12.8 0-32s12.8-32 32-32h25.6c153.6 0 281.6 128 281.6 281.6v217.6c0 25.6-12.8 32-32 32z m-774.4 0c-19.2 0-32-12.8-32-32V768c0-153.6 128-281.6 281.6-281.6h25.6c19.2 0 32 12.8 32 32s19.2 38.4 0 38.4h-57.6c-121.6 0-217.6 96-217.6 217.6V992c0 19.2-12.8 25.6-32 25.6zM518.4 1017.6c-7.2 0-14.4-3.2-19.2-8.8l-81.6-92.8c-6.4-7.2-8-17.6-4.8-26.4L496 680.8c4-9.6 13.6-16 24-16s20 6.4 24 16l82.4 208.8c3.2 8.8 1.6 19.2-4.8 26.4l-84 92.8c-4.8 5.6-12 8.8-19.2 8.8z m-52-124l52.8 60 53.6-60L520 759.2l-53.6 134.4z" p-id="38009"></path><path d="M520 688.8c-14.4 0-29.6-5.6-40.8-16.8L448 640.8c-22.4-22.4-22.4-59.2 0-81.6l31.2-31.2c22.4-22.4 59.2-22.4 81.6 0l31.2 31.2c22.4 22.4 22.4 59.2 0 81.6L560.8 672c-11.2 11.2-26.4 16.8-40.8 16.8z m-4.8-52.8c2.4 2.4 6.4 2.4 8.8 0l31.2-31.2c2.4-2.4 2.4-6.4 0-8.8l-31.2-31.2c-2.4-2.4-6.4-2.4-8.8 0l-31.2 31.2c-2.4 2.4-2.4 6.4 0 8.8l31.2 31.2z" p-id="38010"></path></svg>